<?xml version="1.0" encoding="utf-8" ?>
<svg baseProfile="tiny" height="154px" version="1.2" width="706px" xmlns="http://www.w3.org/2000/svg" xmlns:ev="http://www.w3.org/2001/xml-events" xmlns:xlink="http://www.w3.org/1999/xlink"><defs /><rect fill="none" height="154" width="706" x="0" y="0" /><text fill="#9ca3af" font-size="10px" x="30" y="22">Ara</text><text fill="#9ca3af" font-size="10px" x="90" y="22">Oca</text><text fill="#9ca3af" font-size="10px" x="138" y="22">Şub</text><text fill="#9ca3af" font-size="10px" x="186" y="22">Mar</text><text fill="#9ca3af" font-size="10px" x="246" y="22">Nis</text><text fill="#9ca3af" font-size="10px" x="294" y="22">May</text><text fill="#9ca3af" font-size="10px" x="342" y="22">Haz</text><text fill="#9ca3af" font-size="10px" x="402" y="22">Tem</text><text fill="#9ca3af" font-size="10px" x="450" y="22">Ağu</text><text fill="#9ca3af" font-size="10px" x="498" y="22">Eyl</text><text fill="#9ca3af" font-size="10px" x="558" y="22">Eki</text><text fill="#9ca3af" font-size="10px" x="606" y="22">Kas</text><text fill="#9ca3af" font-size="10px" x="654" y="22">Ara</text><text fill="#6b7280" font-size="9px" x="5" y="39">Pzt</text><text fill="#6b7280" font-size="9px" x="5" y="63">Çrş</text><text fill="#6b7280" font-size="9px" x="5" y="87">Cum</text><rect fill="#60a5fa" height="10" rx="2" ry="2" width="10" x="30" y="30" /><rect fill="#60a5fa" height="10" rx="2" ry="2" width="10" x="30" y="42" /><rect fill="#60a5fa" height="10" rx="2" ry="2" width="10" x="30" y="54" /><rect fill="#60a5fa" height="10" rx="2" ry="2" width="10" x="30" y="66" /><rect fill="#111827" height="10" rx="2" ry="2" width="10" x="30" y="78" /><rect fill="#3b82f6" height="10" rx="2" ry="2" width="10" x="30" y="90" /><rect fill="#60a5fa" height="10" rx="2" ry="2" width="10" x="30" y="102" /><rect fill="#60a5fa" height="10" rx="2" ry="2" width="10" x="42" y="30" /><rect fill="#111827" height="10" rx="2" ry="2" width="10" x="42" y="42" /><rect fill="#60a5fa" height="10" rx="2" ry="2" width="10" x="42" y="54" /><rect fill="#111827" height="10" rx="2" ry="2" width="10" x="42" y="66" /><rect fill="#111827" height="10" rx="2" ry="2" width="10" x="42" y="78" /><rect fill="#111827" height="10" rx="2" ry="2" width="10" x="42" y="90" /><rect fill="#111827" height="10" rx="2" ry="2" width="10" x="42" y="102" /><rect fill="#60a5fa" height="10" rx="2" ry="2" width="10" x="54" y="30" /><rect fill="#111827" height="10" rx="2" ry="2" width="10" x="54" y="42" /><rect fill="#60a5fa" height="10" rx="2" ry="2" width="10" x="54" y="54" /><rect fill="#60a5fa" height="10" rx="2" ry="2" width="10" x="54" y="66" /><rect fill="#1d4ed8" height="10" rx="2" ry="2" width="10" x="54" y="78" /><rect fill="#111827" height="10" rx="2" ry="2" width="10" x="54" y="90" /><rect fill="#111827" height="10" rx="2" ry="2" width="10" x="54" y="102" /><rect fill="#3b82f6" height="10" rx="2" ry="2" width="10" x="66" y="30" /><rect fill="#60a5fa" height="10" rx="2" ry="2" width="10" x="66" y="42" /><rect fill="#60a5fa" height="10" rx="2" ry="2" width="10" x="66" y="54" /><rect fill="#60a5fa" height="10" rx="2" ry="2" width="10" x="66" y="66" /><rect fill="#3b82f6" height="10" rx="2" ry="2" width="10" x="66" y="78" /><rect fill="#111827" height="10" rx="2" ry="2" width="10" x="66" y="90" /><rect fill="#111827" height="10" rx="2" ry="2" width="10" x="66" y="102" /><rect fill="#111827" height="10" rx="2" ry="2" width="10" x="78" y="30" /><rect fill="#111827" height="10" rx="2" ry="2" width="10" x="78" y="42" /><rect fill="#111827" height="10" rx="2" ry="2" width="10" x="78" y="54" /><rect fill="#111827" height="10" rx="2" ry="2" width="10" x="78" y="66" /><rect fill="#111827" height="10" rx="2" ry="2" width="10" x="78" y="78" /><rect fill="#111827" height="10" rx="2" ry="2" width="10" x="78" y="90" /><rect fill="#111827" height="10" rx="2" ry="2" width="10" x="78" y="102" /><rect fill="#60a5fa" height="10" rx="2" ry="2" width="10" x="90" y="30" /><rect fill="#60a5fa" height="10" rx="2" ry="2" width="10" x="90" y="42" /><rect fill="#111827" height="10" rx="2" ry="2" width="10" x="90" y="54" /><rect fill="#60a5fa" height="10" rx="2" ry="2" width="10" x="90" y="66" /><rect fill="#2563eb" height="10" rx="2" ry="2" width="10" x="90" y="78" /><rect fill="#111827" height="10" rx="2" ry="2" width="10" x="90" y="90" /><rect fill="#111827" height="10" rx="2" ry="2" width="10" x="90" y="102" /><rect fill="#3b82f6" height="10" rx="2" ry="2" width="10" x="102" y="30" /><rect fill="#60a5fa" height="10" rx="2" ry="2" width="10" x="102" y="42" /><rect fill="#3b82f6" height="10" rx="2" ry="2" width="10" x="102" y="54" /><rect fill="#111827" height="10" rx="2" ry="2" width="10" x="102" y="66" /><rect fill="#111827" height="10" rx="2" ry="2" width="10" x="102" y="78" /><rect fill="#111827" height="10" rx="2" ry="2" width="10" x="102" y="90" /><rect fill="#111827" height="10" rx="2" ry="2" width="10" x="102" y="102" /><rect fill="#60a5fa" height="10" rx="2" ry="2" width="10" x="114" y="30" /><rect fill="#60a5fa" height="10" rx="2" ry="2" width="10" x="114" y="42" /><rect fill="#60a5fa" height="10" rx="2" ry="2" width="10" x="114" y="54" /><rect fill="#2563eb" height="10" rx="2" ry="2" width="10" x="114" y="66" /><rect fill="#111827" height="10" rx="2" ry="2" width="10" x="114" y="78" /><rect fill="#111827" height="10" rx="2" ry="2" width="10" x="114" y="90" /><rect fill="#111827" height="10" rx="2" ry="2" width="10" x="114" y="102" /><rect fill="#111827" height="10" rx="2" ry="2" width="10" x="126" y="30" /><rect fill="#111827" height="10" rx="2" ry="2" width="10" x="126" y="42" /><rect fill="#60a5fa" height="10" rx="2" ry="2" width="10" x="126" y="54" /><rect fill="#60a5fa" height="10" rx="2" ry="2" width="10" x="126" y="66" /><rect fill="#111827" height="10" rx="2" ry="2" width="10" x="126" y="78" /><rect fill="#111827" height="10" rx="2" ry="2" width="10" x="126" y="90" /><rect fill="#60a5fa" height="10" rx="2" ry="2" width="10" x="126" y="102" /><rect fill="#111827" height="10" rx="2" ry="2" width="10" x="138" y="30" /><rect fill="#111827" height="10" rx="2" ry="2" width="10" x="138" y="42" /><rect fill="#111827" height="10" rx="2" ry="2" width="10" x="138" y="54" /><rect fill="#111827" height="10" rx="2" ry="2" width="10" x="138" y="66" /><rect fill="#3b82f6" height="10" rx="2" ry="2" width="10" x="138" y="78" /><rect fill="#111827" height="10" rx="2" ry="2" width="10" x="138" y="90" /><rect fill="#3b82f6" height="10" rx="2" ry="2" width="10" x="138" y="102" /><rect fill="#60a5fa" height="10" rx="2" ry="2" width="10" x="150" y="30" /><rect fill="#111827" height="10" rx="2" ry="2" width="10" x="150" y="42" /><rect fill="#111827" height="10" rx="2" ry="2" width="10" x="150" y="54" /><rect fill="#111827" height="10" rx="2" ry="2" width="10" x="150" y="66" /><rect fill="#111827" height="10" rx="2" ry="2" width="10" x="150" y="78" /><rect fill="#111827" height="10" rx="2" ry="2" width="10" x="150" y="90" /><rect fill="#111827" height="10" rx="2" ry="2" width="10" x="150" y="102" /><rect fill="#60a5fa" height="10" rx="2" ry="2" width="10" x="162" y="30" /><rect fill="#2563eb" height="10" rx="2" ry="2" width="10" x="162" y="42" /><rect fill="#60a5fa" height="10" rx="2" ry="2" width="10" x="162" y="54" /><rect fill="#60a5fa" height="10" rx="2" ry="2" width="10" x="162" y="66" /><rect fill="#111827" height="10" rx="2" ry="2" width="10" x="162" y="78" /><rect fill="#111827" height="10" rx="2" ry="2" width="10" x="162" y="90" /><rect fill="#111827" height="10" rx="2" ry="2" width="10" x="162" y="102" /><rect fill="#60a5fa" height="10" rx="2" ry="2" width="10" x="174" y="30" /><rect fill="#3b82f6" height="10" rx="2" ry="2" width="10" x="174" y="42" /><rect fill="#60a5fa" height="10" rx="2" ry="2" width="10" x="174" y="54" /><rect fill="#60a5fa" height="10" rx="2" ry="2" width="10" x="174" y="66" /><rect fill="#60a5fa" height="10" rx="2" ry="2" width="10" x="174" y="78" /><rect fill="#111827" height="10" rx="2" ry="2" width="10" x="174" y="90" /><rect fill="#111827" height="10" rx="2" ry="2" width="10" x="174" y="102" /><rect fill="#111827" height="10" rx="2" ry="2" width="10" x="186" y="30" /><rect fill="#60a5fa" height="10" rx="2" ry="2" width="10" x="186" y="42" /><rect fill="#60a5fa" height="10" rx="2" ry="2" width="10" x="186" y="54" /><rect fill="#111827" height="10" rx="2" ry="2" width="10" x="186" y="66" /><rect fill="#60a5fa" height="10" rx="2" ry="2" width="10" x="186" y="78" /><rect fill="#111827" height="10" rx="2" ry="2" width="10" x="186" y="90" /><rect fill="#111827" height="10" rx="2" ry="2" width="10" x="186" y="102" /><rect fill="#111827" height="10" rx="2" ry="2" width="10" x="198" y="30" /><rect fill="#60a5fa" height="10" rx="2" ry="2" width="10" x="198" y="42" /><rect fill="#60a5fa" height="10" rx="2" ry="2" width="10" x="198" y="54" /><rect fill="#60a5fa" height="10" rx="2" ry="2" width="10" x="198" y="66" /><rect fill="#2563eb" height="10" rx="2" ry="2" width="10" x="198" y="78" /><rect fill="#111827" height="10" rx="2" ry="2" width="10" x="198" y="90" /><rect fill="#111827" height="10" rx="2" ry="2" width="10" x="198" y="102" /><rect fill="#3b82f6" height="10" rx="2" ry="2" width="10" x="210" y="30" /><rect fill="#111827" height="10" rx="2" ry="2" width="10" x="210" y="42" /><rect fill="#111827" height="10" rx="2" ry="2" width="10" x="210" y="54" /><rect fill="#111827" height="10" rx="2" ry="2" width="10" x="210" y="66" /><rect fill="#60a5fa" height="10" rx="2" ry="2" width="10" x="210" y="78" /><rect fill="#111827" height="10" rx="2" ry="2" width="10" x="210" y="90" /><rect fill="#111827" height="10" rx="2" ry="2" width="10" x="210" y="102" /><rect fill="#60a5fa" height="10" rx="2" ry="2" width="10" x="222" y="30" /><rect fill="#60a5fa" height="10" rx="2" ry="2" width="10" x="222" y="42" /><rect fill="#60a5fa" height="10" rx="2" ry="2" width="10" x="222" y="54" /><rect fill="#3b82f6" height="10" rx="2" ry="2" width="10" x="222" y="66" /><rect fill="#111827" height="10" rx="2" ry="2" width="10" x="222" y="78" /><rect fill="#111827" height="10" rx="2" ry="2" width="10" x="222" y="90" /><rect fill="#111827" height="10" rx="2" ry="2" width="10" x="222" y="102" /><rect fill="#111827" height="10" rx="2" ry="2" width="10" x="234" y="30" /><rect fill="#60a5fa" height="10" rx="2" ry="2" width="10" x="234" y="42" /><rect fill="#60a5fa" height="10" rx="2" ry="2" width="10" x="234" y="54" /><rect fill="#60a5fa" height="10" rx="2" ry="2" width="10" x="234" y="66" /><rect fill="#60a5fa" height="10" rx="2" ry="2" width="10" x="234" y="78" /><rect fill="#111827" height="10" rx="2" ry="2" width="10" x="234" y="90" /><rect fill="#111827" height="10" rx="2" ry="2" width="10" x="234" y="102" /><rect fill="#111827" height="10" rx="2" ry="2" width="10" x="246" y="30" /><rect fill="#111827" height="10" rx="2" ry="2" width="10" x="246" y="42" /><rect fill="#60a5fa" height="10" rx="2" ry="2" width="10" x="246" y="54" /><rect fill="#111827" height="10" rx="2" ry="2" width="10" x="246" y="66" /><rect fill="#60a5fa" height="10" rx="2" ry="2" width="10" x="246" y="78" /><rect fill="#111827" height="10" rx="2" ry="2" width="10" x="246" y="90" /><rect fill="#111827" height="10" rx="2" ry="2" width="10" x="246" y="102" /><rect fill="#111827" height="10" rx="2" ry="2" width="10" x="258" y="30" /><rect fill="#60a5fa" height="10" rx="2" ry="2" width="10" x="258" y="42" /><rect fill="#3b82f6" height="10" rx="2" ry="2" width="10" x="258" y="54" /><rect fill="#60a5fa" height="10" rx="2" ry="2" width="10" x="258" y="66" /><rect fill="#111827" height="10" rx="2" ry="2" width="10" x="258" y="78" /><rect fill="#111827" height="10" rx="2" ry="2" width="10" x="258" y="90" /><rect fill="#111827" height="10" rx="2" ry="2" width="10" x="258" y="102" /><rect fill="#3b82f6" height="10" rx="2" ry="2" width="10" x="270" y="30" /><rect fill="#60a5fa" height="10" rx="2" ry="2" width="10" x="270" y="42" /><rect fill="#111827" height="10" rx="2" ry="2" width="10" x="270" y="54" /><rect fill="#60a5fa" height="10" rx="2" ry="2" width="10" x="270" y="66" /><rect fill="#3b82f6" height="10" rx="2" ry="2" width="10" x="270" y="78" /><rect fill="#111827" height="10" rx="2" ry="2" width="10" x="270" y="90" /><rect fill="#111827" height="10" rx="2" ry="2" width="10" x="270" y="102" /><rect fill="#3b82f6" height="10" rx="2" ry="2" width="10" x="282" y="30" /><rect fill="#60a5fa" height="10" rx="2" ry="2" width="10" x="282" y="42" /><rect fill="#60a5fa" height="10" rx="2" ry="2" width="10" x="282" y="54" /><rect fill="#111827" height="10" rx="2" ry="2" width="10" x="282" y="66" /><rect fill="#60a5fa" height="10" rx="2" ry="2" width="10" x="282" y="78" /><rect fill="#111827" height="10" rx="2" ry="2" width="10" x="282" y="90" /><rect fill="#111827" height="10" rx="2" ry="2" width="10" x="282" y="102" /><rect fill="#60a5fa" height="10" rx="2" ry="2" width="10" x="294" y="30" /><rect fill="#60a5fa" height="10" rx="2" ry="2" width="10" x="294" y="42" /><rect fill="#60a5fa" height="10" rx="2" ry="2" width="10" x="294" y="54" /><rect fill="#60a5fa" height="10" rx="2" ry="2" width="10" x="294" y="66" /><rect fill="#60a5fa" height="10" rx="2" ry="2" width="10" x="294" y="78" /><rect fill="#111827" height="10" rx="2" ry="2" width="10" x="294" y="90" /><rect fill="#111827" height="10" rx="2" ry="2" width="10" x="294" y="102" /><rect fill="#60a5fa" height="10" rx="2" ry="2" width="10" x="306" y="30" /><rect fill="#60a5fa" height="10" rx="2" ry="2" width="10" x="306" y="42" /><rect fill="#111827" height="10" rx="2" ry="2" width="10" x="306" y="54" /><rect fill="#3b82f6" height="10" rx="2" ry="2" width="10" x="306" y="66" /><rect fill="#60a5fa" height="10" rx="2" ry="2" width="10" x="306" y="78" /><rect fill="#111827" height="10" rx="2" ry="2" width="10" x="306" y="90" /><rect fill="#111827" height="10" rx="2" ry="2" width="10" x="306" y="102" /><rect fill="#111827" height="10" rx="2" ry="2" width="10" x="318" y="30" /><rect fill="#111827" height="10" rx="2" ry="2" width="10" x="318" y="42" /><rect fill="#60a5fa" height="10" rx="2" ry="2" width="10" x="318" y="54" /><rect fill="#60a5fa" height="10" rx="2" ry="2" width="10" x="318" y="66" /><rect fill="#60a5fa" height="10" rx="2" ry="2" width="10" x="318" y="78" /><rect fill="#111827" height="10" rx="2" ry="2" width="10" x="318" y="90" /><rect fill="#111827" height="10" rx="2" ry="2" width="10" x="318" y="102" /><rect fill="#3b82f6" height="10" rx="2" ry="2" width="10" x="330" y="30" /><rect fill="#60a5fa" height="10" rx="2" ry="2" width="10" x="330" y="42" /><rect fill="#60a5fa" height="10" rx="2" ry="2" width="10" x="330" y="54" /><rect fill="#3b82f6" height="10" rx="2" ry="2" width="10" x="330" y="66" /><rect fill="#111827" height="10" rx="2" ry="2" width="10" x="330" y="78" /><rect fill="#111827" height="10" rx="2" ry="2" width="10" x="330" y="90" /><rect fill="#3b82f6" height="10" rx="2" ry="2" width="10" x="330" y="102" /><rect fill="#111827" height="10" rx="2" ry="2" width="10" x="342" y="30" /><rect fill="#111827" height="10" rx="2" ry="2" width="10" x="342" y="42" /><rect fill="#60a5fa" height="10" rx="2" ry="2" width="10" x="342" y="54" /><rect fill="#111827" height="10" rx="2" ry="2" width="10" x="342" y="66" /><rect fill="#111827" height="10" rx="2" ry="2" width="10" x="342" y="78" /><rect fill="#111827" height="10" rx="2" ry="2" width="10" x="342" y="90" /><rect fill="#111827" height="10" rx="2" ry="2" width="10" x="342" y="102" /><rect fill="#111827" height="10" rx="2" ry="2" width="10" x="354" y="30" /><rect fill="#111827" height="10" rx="2" ry="2" width="10" x="354" y="42" /><rect fill="#60a5fa" height="10" rx="2" ry="2" width="10" x="354" y="54" /><rect fill="#60a5fa" height="10" rx="2" ry="2" width="10" x="354" y="66" /><rect fill="#111827" height="10" rx="2" ry="2" width="10" x="354" y="78" /><rect fill="#111827" height="10" rx="2" ry="2" width="10" x="354" y="90" /><rect fill="#111827" height="10" rx="2" ry="2" width="10" x="354" y="102" /><rect fill="#60a5fa" height="10" rx="2" ry="2" width="10" x="366" y="30" /><rect fill="#60a5fa" height="10" rx="2" ry="2" width="10" x="366" y="42" /><rect fill="#60a5fa" height="10" rx="2" ry="2" width="10" x="366" y="54" /><rect fill="#111827" height="10" rx="2" ry="2" width="10" x="366" y="66" /><rect fill="#111827" height="10" rx="2" ry="2" width="10" x="366" y="78" /><rect fill="#111827" height="10" rx="2" ry="2" width="10" x="366" y="90" /><rect fill="#111827" height="10" rx="2" ry="2" width="10" x="366" y="102" /><rect fill="#60a5fa" height="10" rx="2" ry="2" width="10" x="378" y="30" /><rect fill="#60a5fa" height="10" rx="2" ry="2" width="10" x="378" y="42" /><rect fill="#60a5fa" height="10" rx="2" ry="2" width="10" x="378" y="54" /><rect fill="#60a5fa" height="10" rx="2" ry="2" width="10" x="378" y="66" /><rect fill="#60a5fa" height="10" rx="2" ry="2" width="10" x="378" y="78" /><rect fill="#111827" height="10" rx="2" ry="2" width="10" x="378" y="90" /><rect fill="#111827" height="10" rx="2" ry="2" width="10" x="378" y="102" /><rect fill="#60a5fa" height="10" rx="2" ry="2" width="10" x="390" y="30" /><rect fill="#111827" height="10" rx="2" ry="2" width="10" x="390" y="42" /><rect fill="#111827" height="10" rx="2" ry="2" width="10" x="390" y="54" /><rect fill="#60a5fa" height="10" rx="2" ry="2" width="10" x="390" y="66" /><rect fill="#60a5fa" height="10" rx="2" ry="2" width="10" x="390" y="78" /><rect fill="#111827" height="10" rx="2" ry="2" width="10" x="390" y="90" /><rect fill="#111827" height="10" rx="2" ry="2" width="10" x="390" y="102" /><rect fill="#3b82f6" height="10" rx="2" ry="2" width="10" x="402" y="30" /><rect fill="#60a5fa" height="10" rx="2" ry="2" width="10" x="402" y="42" /><rect fill="#111827" height="10" rx="2" ry="2" width="10" x="402" y="54" /><rect fill="#60a5fa" height="10" rx="2" ry="2" width="10" x="402" y="66" /><rect fill="#60a5fa" height="10" rx="2" ry="2" width="10" x="402" y="78" /><rect fill="#111827" height="10" rx="2" ry="2" width="10" x="402" y="90" /><rect fill="#111827" height="10" rx="2" ry="2" width="10" x="402" y="102" /><rect fill="#60a5fa" height="10" rx="2" ry="2" width="10" x="414" y="30" /><rect fill="#111827" height="10" rx="2" ry="2" width="10" x="414" y="42" /><rect fill="#60a5fa" height="10" rx="2" ry="2" width="10" x="414" y="54" /><rect fill="#60a5fa" height="10" rx="2" ry="2" width="10" x="414" y="66" /><rect fill="#60a5fa" height="10" rx="2" ry="2" width="10" x="414" y="78" /><rect fill="#111827" height="10" rx="2" ry="2" width="10" x="414" y="90" /><rect fill="#111827" height="10" rx="2" ry="2" width="10" x="414" y="102" /><rect fill="#111827" height="10" rx="2" ry="2" width="10" x="426" y="30" /><rect fill="#60a5fa" height="10" rx="2" ry="2" width="10" x="426" y="42" /><rect fill="#111827" height="10" rx="2" ry="2" width="10" x="426" y="54" /><rect fill="#60a5fa" height="10" rx="2" ry="2" width="10" x="426" y="66" /><rect fill="#60a5fa" height="10" rx="2" ry="2" width="10" x="426" y="78" /><rect fill="#111827" height="10" rx="2" ry="2" width="10" x="426" y="90" /><rect fill="#111827" height="10" rx="2" ry="2" width="10" x="426" y="102" /><rect fill="#60a5fa" height="10" rx="2" ry="2" width="10" x="438" y="30" /><rect fill="#111827" height="10" rx="2" ry="2" width="10" x="438" y="42" /><rect fill="#3b82f6" height="10" rx="2" ry="2" width="10" x="438" y="54" /><rect fill="#60a5fa" height="10" rx="2" ry="2" width="10" x="438" y="66" /><rect fill="#111827" height="10" rx="2" ry="2" width="10" x="438" y="78" /><rect fill="#111827" height="10" rx="2" ry="2" width="10" x="438" y="90" /><rect fill="#111827" height="10" rx="2" ry="2" width="10" x="438" y="102" /><rect fill="#111827" height="10" rx="2" ry="2" width="10" x="450" y="30" /><rect fill="#60a5fa" height="10" rx="2" ry="2" width="10" x="450" y="42" /><rect fill="#60a5fa" height="10" rx="2" ry="2" width="10" x="450" y="54" /><rect fill="#60a5fa" height="10" rx="2" ry="2" width="10" x="450" y="66" /><rect fill="#60a5fa" height="10" rx="2" ry="2" width="10" x="450" y="78" /><rect fill="#111827" height="10" rx="2" ry="2" width="10" x="450" y="90" /><rect fill="#111827" height="10" rx="2" ry="2" width="10" x="450" y="102" /><rect fill="#60a5fa" height="10" rx="2" ry="2" width="10" x="462" y="30" /><rect fill="#60a5fa" height="10" rx="2" ry="2" width="10" x="462" y="42" /><rect fill="#111827" height="10" rx="2" ry="2" width="10" x="462" y="54" /><rect fill="#60a5fa" height="10" rx="2" ry="2" width="10" x="462" y="66" /><rect fill="#3b82f6" height="10" rx="2" ry="2" width="10" x="462" y="78" /><rect fill="#111827" height="10" rx="2" ry="2" width="10" x="462" y="90" /><rect fill="#111827" height="10" rx="2" ry="2" width="10" x="462" y="102" /><rect fill="#111827" height="10" rx="2" ry="2" width="10" x="474" y="30" /><rect fill="#60a5fa" height="10" rx="2" ry="2" width="10" x="474" y="42" /><rect fill="#60a5fa" height="10" rx="2" ry="2" width="10" x="474" y="54" /><rect fill="#111827" height="10" rx="2" ry="2" width="10" x="474" y="66" /><rect fill="#2563eb" height="10" rx="2" ry="2" width="10" x="474" y="78" /><rect fill="#111827" height="10" rx="2" ry="2" width="10" x="474" y="90" /><rect fill="#111827" height="10" rx="2" ry="2" width="10" x="474" y="102" /><rect fill="#60a5fa" height="10" rx="2" ry="2" width="10" x="486" y="30" /><rect fill="#60a5fa" height="10" rx="2" ry="2" width="10" x="486" y="42" /><rect fill="#60a5fa" height="10" rx="2" ry="2" width="10" x="486" y="54" /><rect fill="#111827" height="10" rx="2" ry="2" width="10" x="486" y="66" /><rect fill="#60a5fa" height="10" rx="2" ry="2" width="10" x="486" y="78" /><rect fill="#111827" height="10" rx="2" ry="2" width="10" x="486" y="90" /><rect fill="#111827" height="10" rx="2" ry="2" width="10" x="486" y="102" /><rect fill="#60a5fa" height="10" rx="2" ry="2" width="10" x="498" y="30" /><rect fill="#3b82f6" height="10" rx="2" ry="2" width="10" x="498" y="42" /><rect fill="#60a5fa" height="10" rx="2" ry="2" width="10" x="498" y="54" /><rect fill="#60a5fa" height="10" rx="2" ry="2" width="10" x="498" y="66" /><rect fill="#60a5fa" height="10" rx="2" ry="2" width="10" x="498" y="78" /><rect fill="#3b82f6" height="10" rx="2" ry="2" width="10" x="498" y="90" /><rect fill="#111827" height="10" rx="2" ry="2" width="10" x="498" y="102" /><rect fill="#60a5fa" height="10" rx="2" ry="2" width="10" x="510" y="30" /><rect fill="#111827" height="10" rx="2" ry="2" width="10" x="510" y="42" /><rect fill="#111827" height="10" rx="2" ry="2" width="10" x="510" y="54" /><rect fill="#111827" height="10" rx="2" ry="2" width="10" x="510" y="66" /><rect fill="#60a5fa" height="10" rx="2" ry="2" width="10" x="510" y="78" /><rect fill="#111827" height="10" rx="2" ry="2" width="10" x="510" y="90" /><rect fill="#111827" height="10" rx="2" ry="2" width="10" x="510" y="102" /><rect fill="#111827" height="10" rx="2" ry="2" width="10" x="522" y="30" /><rect fill="#60a5fa" height="10" rx="2" ry="2" width="10" x="522" y="42" /><rect fill="#60a5fa" height="10" rx="2" ry="2" width="10" x="522" y="54" /><rect fill="#60a5fa" height="10" rx="2" ry="2" width="10" x="522" y="66" /><rect fill="#111827" height="10" rx="2" ry="2" width="10" x="522" y="78" /><rect fill="#111827" height="10" rx="2" ry="2" width="10" x="522" y="90" /><rect fill="#111827" height="10" rx="2" ry="2" width="10" x="522" y="102" /><rect fill="#3b82f6" height="10" rx="2" ry="2" width="10" x="534" y="30" /><rect fill="#60a5fa" height="10" rx="2" ry="2" width="10" x="534" y="42" /><rect fill="#111827" height="10" rx="2" ry="2" width="10" x="534" y="54" /><rect fill="#111827" height="10" rx="2" ry="2" width="10" x="534" y="66" /><rect fill="#111827" height="10" rx="2" ry="2" width="10" x="534" y="78" /><rect fill="#111827" height="10" rx="2" ry="2" width="10" x="534" y="90" /><rect fill="#111827" height="10" rx="2" ry="2" width="10" x="534" y="102" /><rect fill="#60a5fa" height="10" rx="2" ry="2" width="10" x="546" y="30" /><rect fill="#3b82f6" height="10" rx="2" ry="2" width="10" x="546" y="42" /><rect fill="#60a5fa" height="10" rx="2" ry="2" width="10" x="546" y="54" /><rect fill="#111827" height="10" rx="2" ry="2" width="10" x="546" y="66" /><rect fill="#60a5fa" height="10" rx="2" ry="2" width="10" x="546" y="78" /><rect fill="#111827" height="10" rx="2" ry="2" width="10" x="546" y="90" /><rect fill="#3b82f6" height="10" rx="2" ry="2" width="10" x="546" y="102" /><rect fill="#111827" height="10" rx="2" ry="2" width="10" x="558" y="30" /><rect fill="#1d4ed8" height="10" rx="2" ry="2" width="10" x="558" y="42" /><rect fill="#3b82f6" height="10" rx="2" ry="2" width="10" x="558" y="54" /><rect fill="#111827" height="10" rx="2" ry="2" width="10" x="558" y="66" /><rect fill="#3b82f6" height="10" rx="2" ry="2" width="10" x="558" y="78" /><rect fill="#111827" height="10" rx="2" ry="2" width="10" x="558" y="90" /><rect fill="#111827" height="10" rx="2" ry="2" width="10" x="558" y="102" /><rect fill="#111827" height="10" rx="2" ry="2" width="10" x="570" y="30" /><rect fill="#60a5fa" height="10" rx="2" ry="2" width="10" x="570" y="42" /><rect fill="#3b82f6" height="10" rx="2" ry="2" width="10" x="570" y="54" /><rect fill="#3b82f6" height="10" rx="2" ry="2" width="10" x="570" y="66" /><rect fill="#111827" height="10" rx="2" ry="2" width="10" x="570" y="78" /><rect fill="#111827" height="10" rx="2" ry="2" width="10" x="570" y="90" /><rect fill="#60a5fa" height="10" rx="2" ry="2" width="10" x="570" y="102" /><rect fill="#111827" height="10" rx="2" ry="2" width="10" x="582" y="30" /><rect fill="#60a5fa" height="10" rx="2" ry="2" width="10" x="582" y="42" /><rect fill="#2563eb" height="10" rx="2" ry="2" width="10" x="582" y="54" /><rect fill="#60a5fa" height="10" rx="2" ry="2" width="10" x="582" y="66" /><rect fill="#2563eb" height="10" rx="2" ry="2" width="10" x="582" y="78" /><rect fill="#111827" height="10" rx="2" ry="2" width="10" x="582" y="90" /><rect fill="#111827" height="10" rx="2" ry="2" width="10" x="582" y="102" /><rect fill="#111827" height="10" rx="2" ry="2" width="10" x="594" y="30" /><rect fill="#111827" height="10" rx="2" ry="2" width="10" x="594" y="42" /><rect fill="#111827" height="10" rx="2" ry="2" width="10" x="594" y="54" /><rect fill="#60a5fa" height="10" rx="2" ry="2" width="10" x="594" y="66" /><rect fill="#111827" height="10" rx="2" ry="2" width="10" x="594" y="78" /><rect fill="#111827" height="10" rx="2" ry="2" width="10" x="594" y="90" /><rect fill="#111827" height="10" rx="2" ry="2" width="10" x="594" y="102" /><rect fill="#60a5fa" height="10" rx="2" ry="2" width="10" x="606" y="30" /><rect fill="#60a5fa" height="10" rx="2" ry="2" width="10" x="606" y="42" /><rect fill="#60a5fa" height="10" rx="2" ry="2" width="10" x="606" y="54" /><rect fill="#111827" height="10" rx="2" ry="2" width="10" x="606" y="66" /><rect fill="#111827" height="10" rx="2" ry="2" width="10" x="606" y="78" /><rect fill="#111827" height="10" rx="2" ry="2" width="10" x="606" y="90" /><rect fill="#111827" height="10" rx="2" ry="2" width="10" x="606" y="102" /><rect fill="#60a5fa" height="10" rx="2" ry="2" width="10" x="618" y="30" /><rect fill="#111827" height="10" rx="2" ry="2" width="10" x="618" y="42" /><rect fill="#60a5fa" height="10" rx="2" ry="2" width="10" x="618" y="54" /><rect fill="#111827" height="10" rx="2" ry="2" width="10" x="618" y="66" /><rect fill="#3b82f6" height="10" rx="2" ry="2" width="10" x="618" y="78" /><rect fill="#111827" height="10" rx="2" ry="2" width="10" x="618" y="90" /><rect fill="#111827" height="10" rx="2" ry="2" width="10" x="618" y="102" /><rect fill="#111827" height="10" rx="2" ry="2" width="10" x="630" y="30" /><rect fill="#60a5fa" height="10" rx="2" ry="2" width="10" x="630" y="42" /><rect fill="#60a5fa" height="10" rx="2" ry="2" width="10" x="630" y="54" /><rect fill="#3b82f6" height="10" rx="2" ry="2" width="10" x="630" y="66" /><rect fill="#60a5fa" height="10" rx="2" ry="2" width="10" x="630" y="78" /><rect fill="#111827" height="10" rx="2" ry="2" width="10" x="630" y="90" /><rect fill="#111827" height="10" rx="2" ry="2" width="10" x="630" y="102" /><rect fill="#60a5fa" height="10" rx="2" ry="2" width="10" x="642" y="30" /><rect fill="#3b82f6" height="10" rx="2" ry="2" width="10" x="642" y="42" /><rect fill="#2563eb" height="10" rx="2" ry="2" width="10" x="642" y="54" /><rect fill="#111827" height="10" rx="2" ry="2" width="10" x="642" y="66" /><rect fill="#111827" height="10" rx="2" ry="2" width="10" x="642" y="78" /><rect fill="#111827" height="10" rx="2" ry="2" width="10" x="642" y="90" /><rect fill="#111827" height="10" rx="2" ry="2" width="10" x="642" y="102" /><rect fill="#111827" height="10" rx="2" ry="2" width="10" x="654" y="30" /><rect fill="#111827" height="10" rx="2" ry="2" width="10" x="654" y="42" /><rect fill="#60a5fa" height="10" rx="2" ry="2" width="10" x="654" y="54" /><rect fill="#111827" height="10" rx="2" ry="2" width="10" x="654" y="66" /><text fill="#6b7280" font-size="9px" x="30" y="129">Daha az  ▸  Daha çok</text><rect fill="#111827" height="10" rx="2" ry="2" width="10" x="30" y="134" /><rect fill="#1d4ed8" height="10" rx="2" ry="2" width="10" x="44" y="134" /><rect fill="#2563eb" height="10" rx="2" ry="2" width="10" x="58" y="134" /><rect fill="#3b82f6" height="10" rx="2" ry="2" width="10" x="72" y="134" /><rect fill="#60a5fa" height="10" rx="2" ry="2" width="10" x="86" y="134" /></svg>