<?xml version="1.0" encoding="utf-8" ?>
<svg baseProfile="full" height="140px" version="1.1" width="900px" xmlns="http://www.w3.org/2000/svg" xmlns:ev="http://www.w3.org/2001/xml-events" xmlns:xlink="http://www.w3.org/1999/xlink"><defs /><rect fill="#1d4ed8" height="10" rx="2" ry="2" width="10" x="20" y="20" /><rect fill="#1d4ed8" height="10" rx="2" ry="2" width="10" x="20" y="32" /><rect fill="#1e1e1e" height="10" rx="2" ry="2" width="10" x="20" y="44" /><rect fill="#1d4ed8" height="10" rx="2" ry="2" width="10" x="20" y="56" /><rect fill="#1d4ed8" height="10" rx="2" ry="2" width="10" x="20" y="68" /><rect fill="#1d4ed8" height="10" rx="2" ry="2" width="10" x="20" y="80" /><rect fill="#1e1e1e" height="10" rx="2" ry="2" width="10" x="20" y="92" /><rect fill="#1d4ed8" height="10" rx="2" ry="2" width="10" x="32" y="20" /><rect fill="#1e1e1e" height="10" rx="2" ry="2" width="10" x="32" y="32" /><rect fill="#1e1e1e" height="10" rx="2" ry="2" width="10" x="32" y="44" /><rect fill="#1e1e1e" height="10" rx="2" ry="2" width="10" x="32" y="56" /><rect fill="#1e1e1e" height="10" rx="2" ry="2" width="10" x="32" y="68" /><rect fill="#1d4ed8" height="10" rx="2" ry="2" width="10" x="32" y="80" /><rect fill="#1e1e1e" height="10" rx="2" ry="2" width="10" x="32" y="92" /><rect fill="#1d4ed8" height="10" rx="2" ry="2" width="10" x="44" y="20" /><rect fill="#1d4ed8" height="10" rx="2" ry="2" width="10" x="44" y="32" /><rect fill="#3b82f6" height="10" rx="2" ry="2" width="10" x="44" y="44" /><rect fill="#1e1e1e" height="10" rx="2" ry="2" width="10" x="44" y="56" /><rect fill="#1e1e1e" height="10" rx="2" ry="2" width="10" x="44" y="68" /><rect fill="#1d4ed8" height="10" rx="2" ry="2" width="10" x="44" y="80" /><rect fill="#1d4ed8" height="10" rx="2" ry="2" width="10" x="44" y="92" /><rect fill="#1d4ed8" height="10" rx="2" ry="2" width="10" x="56" y="20" /><rect fill="#1d4ed8" height="10" rx="2" ry="2" width="10" x="56" y="32" /><rect fill="#1d4ed8" height="10" rx="2" ry="2" width="10" x="56" y="44" /><rect fill="#1e1e1e" height="10" rx="2" ry="2" width="10" x="56" y="56" /><rect fill="#1e1e1e" height="10" rx="2" ry="2" width="10" x="56" y="68" /><rect fill="#1e1e1e" height="10" rx="2" ry="2" width="10" x="56" y="80" /><rect fill="#1e1e1e" height="10" rx="2" ry="2" width="10" x="56" y="92" /><rect fill="#1e1e1e" height="10" rx="2" ry="2" width="10" x="68" y="20" /><rect fill="#1e1e1e" height="10" rx="2" ry="2" width="10" x="68" y="32" /><rect fill="#1e1e1e" height="10" rx="2" ry="2" width="10" x="68" y="44" /><rect fill="#1e1e1e" height="10" rx="2" ry="2" width="10" x="68" y="56" /><rect fill="#1e1e1e" height="10" rx="2" ry="2" width="10" x="68" y="68" /><rect fill="#1d4ed8" height="10" rx="2" ry="2" width="10" x="68" y="80" /><rect fill="#1d4ed8" height="10" rx="2" ry="2" width="10" x="68" y="92" /><rect fill="#1e1e1e" height="10" rx="2" ry="2" width="10" x="80" y="20" /><rect fill="#1d4ed8" height="10" rx="2" ry="2" width="10" x="80" y="32" /><rect fill="#2563eb" height="10" rx="2" ry="2" width="10" x="80" y="44" /><rect fill="#1e1e1e" height="10" rx="2" ry="2" width="10" x="80" y="56" /><rect fill="#1e1e1e" height="10" rx="2" ry="2" width="10" x="80" y="68" /><rect fill="#1d4ed8" height="10" rx="2" ry="2" width="10" x="80" y="80" /><rect fill="#1d4ed8" height="10" rx="2" ry="2" width="10" x="80" y="92" /><rect fill="#1d4ed8" height="10" rx="2" ry="2" width="10" x="92" y="20" /><rect fill="#1e1e1e" height="10" rx="2" ry="2" width="10" x="92" y="32" /><rect fill="#1e1e1e" height="10" rx="2" ry="2" width="10" x="92" y="44" /><rect fill="#1e1e1e" height="10" rx="2" ry="2" width="10" x="92" y="56" /><rect fill="#1e1e1e" height="10" rx="2" ry="2" width="10" x="92" y="68" /><rect fill="#1d4ed8" height="10" rx="2" ry="2" width="10" x="92" y="80" /><rect fill="#1d4ed8" height="10" rx="2" ry="2" width="10" x="92" y="92" /><rect fill="#1d4ed8" height="10" rx="2" ry="2" width="10" x="104" y="20" /><rect fill="#2563eb" height="10" rx="2" ry="2" width="10" x="104" y="32" /><rect fill="#1e1e1e" height="10" rx="2" ry="2" width="10" x="104" y="44" /><rect fill="#1e1e1e" height="10" rx="2" ry="2" width="10" x="104" y="56" /><rect fill="#1e1e1e" height="10" rx="2" ry="2" width="10" x="104" y="68" /><rect fill="#1e1e1e" height="10" rx="2" ry="2" width="10" x="104" y="80" /><rect fill="#1e1e1e" height="10" rx="2" ry="2" width="10" x="104" y="92" /><rect fill="#1d4ed8" height="10" rx="2" ry="2" width="10" x="116" y="20" /><rect fill="#1d4ed8" height="10" rx="2" ry="2" width="10" x="116" y="32" /><rect fill="#1e1e1e" height="10" rx="2" ry="2" width="10" x="116" y="44" /><rect fill="#1e1e1e" height="10" rx="2" ry="2" width="10" x="116" y="56" /><rect fill="#1d4ed8" height="10" rx="2" ry="2" width="10" x="116" y="68" /><rect fill="#1e1e1e" height="10" rx="2" ry="2" width="10" x="116" y="80" /><rect fill="#1e1e1e" height="10" rx="2" ry="2" width="10" x="116" y="92" /><rect fill="#1e1e1e" height="10" rx="2" ry="2" width="10" x="128" y="20" /><rect fill="#1e1e1e" height="10" rx="2" ry="2" width="10" x="128" y="32" /><rect fill="#1d4ed8" height="10" rx="2" ry="2" width="10" x="128" y="44" /><rect fill="#1e1e1e" height="10" rx="2" ry="2" width="10" x="128" y="56" /><rect fill="#1d4ed8" height="10" rx="2" ry="2" width="10" x="128" y="68" /><rect fill="#1d4ed8" height="10" rx="2" ry="2" width="10" x="128" y="80" /><rect fill="#1e1e1e" height="10" rx="2" ry="2" width="10" x="128" y="92" /><rect fill="#1e1e1e" height="10" rx="2" ry="2" width="10" x="140" y="20" /><rect fill="#1e1e1e" height="10" rx="2" ry="2" width="10" x="140" y="32" /><rect fill="#1e1e1e" height="10" rx="2" ry="2" width="10" x="140" y="44" /><rect fill="#1e1e1e" height="10" rx="2" ry="2" width="10" x="140" y="56" /><rect fill="#1e1e1e" height="10" rx="2" ry="2" width="10" x="140" y="68" /><rect fill="#1d4ed8" height="10" rx="2" ry="2" width="10" x="140" y="80" /><rect fill="#2563eb" height="10" rx="2" ry="2" width="10" x="140" y="92" /><rect fill="#1d4ed8" height="10" rx="2" ry="2" width="10" x="152" y="20" /><rect fill="#1d4ed8" height="10" rx="2" ry="2" width="10" x="152" y="32" /><rect fill="#1e1e1e" height="10" rx="2" ry="2" width="10" x="152" y="44" /><rect fill="#1e1e1e" height="10" rx="2" ry="2" width="10" x="152" y="56" /><rect fill="#1e1e1e" height="10" rx="2" ry="2" width="10" x="152" y="68" /><rect fill="#1d4ed8" height="10" rx="2" ry="2" width="10" x="152" y="80" /><rect fill="#1d4ed8" height="10" rx="2" ry="2" width="10" x="152" y="92" /><rect fill="#1d4ed8" height="10" rx="2" ry="2" width="10" x="164" y="20" /><rect fill="#1d4ed8" height="10" rx="2" ry="2" width="10" x="164" y="32" /><rect fill="#1d4ed8" height="10" rx="2" ry="2" width="10" x="164" y="44" /><rect fill="#1e1e1e" height="10" rx="2" ry="2" width="10" x="164" y="56" /><rect fill="#1e1e1e" height="10" rx="2" ry="2" width="10" x="164" y="68" /><rect fill="#1e1e1e" height="10" rx="2" ry="2" width="10" x="164" y="80" /><rect fill="#1d4ed8" height="10" rx="2" ry="2" width="10" x="164" y="92" /><rect fill="#1d4ed8" height="10" rx="2" ry="2" width="10" x="176" y="20" /><rect fill="#1e1e1e" height="10" rx="2" ry="2" width="10" x="176" y="32" /><rect fill="#1d4ed8" height="10" rx="2" ry="2" width="10" x="176" y="44" /><rect fill="#1e1e1e" height="10" rx="2" ry="2" width="10" x="176" y="56" /><rect fill="#1e1e1e" height="10" rx="2" ry="2" width="10" x="176" y="68" /><rect fill="#1e1e1e" height="10" rx="2" ry="2" width="10" x="176" y="80" /><rect fill="#1d4ed8" height="10" rx="2" ry="2" width="10" x="176" y="92" /><rect fill="#1d4ed8" height="10" rx="2" ry="2" width="10" x="188" y="20" /><rect fill="#1d4ed8" height="10" rx="2" ry="2" width="10" x="188" y="32" /><rect fill="#2563eb" height="10" rx="2" ry="2" width="10" x="188" y="44" /><rect fill="#1e1e1e" height="10" rx="2" ry="2" width="10" x="188" y="56" /><rect fill="#1e1e1e" height="10" rx="2" ry="2" width="10" x="188" y="68" /><rect fill="#1d4ed8" height="10" rx="2" ry="2" width="10" x="188" y="80" /><rect fill="#1e1e1e" height="10" rx="2" ry="2" width="10" x="188" y="92" /><rect fill="#1e1e1e" height="10" rx="2" ry="2" width="10" x="200" y="20" /><rect fill="#1e1e1e" height="10" rx="2" ry="2" width="10" x="200" y="32" /><rect fill="#1d4ed8" height="10" rx="2" ry="2" width="10" x="200" y="44" /><rect fill="#1e1e1e" height="10" rx="2" ry="2" width="10" x="200" y="56" /><rect fill="#1e1e1e" height="10" rx="2" ry="2" width="10" x="200" y="68" /><rect fill="#1d4ed8" height="10" rx="2" ry="2" width="10" x="200" y="80" /><rect fill="#1d4ed8" height="10" rx="2" ry="2" width="10" x="200" y="92" /><rect fill="#1d4ed8" height="10" rx="2" ry="2" width="10" x="212" y="20" /><rect fill="#1d4ed8" height="10" rx="2" ry="2" width="10" x="212" y="32" /><rect fill="#1e1e1e" height="10" rx="2" ry="2" width="10" x="212" y="44" /><rect fill="#1e1e1e" height="10" rx="2" ry="2" width="10" x="212" y="56" /><rect fill="#1e1e1e" height="10" rx="2" ry="2" width="10" x="212" y="68" /><rect fill="#1e1e1e" height="10" rx="2" ry="2" width="10" x="212" y="80" /><rect fill="#1d4ed8" height="10" rx="2" ry="2" width="10" x="212" y="92" /><rect fill="#1d4ed8" height="10" rx="2" ry="2" width="10" x="224" y="20" /><rect fill="#1d4ed8" height="10" rx="2" ry="2" width="10" x="224" y="32" /><rect fill="#1d4ed8" height="10" rx="2" ry="2" width="10" x="224" y="44" /><rect fill="#1e1e1e" height="10" rx="2" ry="2" width="10" x="224" y="56" /><rect fill="#1e1e1e" height="10" rx="2" ry="2" width="10" x="224" y="68" /><rect fill="#1e1e1e" height="10" rx="2" ry="2" width="10" x="224" y="80" /><rect fill="#1e1e1e" height="10" rx="2" ry="2" width="10" x="224" y="92" /><rect fill="#1d4ed8" height="10" rx="2" ry="2" width="10" x="236" y="20" /><rect fill="#1e1e1e" height="10" rx="2" ry="2" width="10" x="236" y="32" /><rect fill="#1d4ed8" height="10" rx="2" ry="2" width="10" x="236" y="44" /><rect fill="#1e1e1e" height="10" rx="2" ry="2" width="10" x="236" y="56" /><rect fill="#1e1e1e" height="10" rx="2" ry="2" width="10" x="236" y="68" /><rect fill="#1e1e1e" height="10" rx="2" ry="2" width="10" x="236" y="80" /><rect fill="#1d4ed8" height="10" rx="2" ry="2" width="10" x="236" y="92" /><rect fill="#1d4ed8" height="10" rx="2" ry="2" width="10" x="248" y="20" /><rect fill="#1d4ed8" height="10" rx="2" ry="2" width="10" x="248" y="32" /><rect fill="#1e1e1e" height="10" rx="2" ry="2" width="10" x="248" y="44" /><rect fill="#1e1e1e" height="10" rx="2" ry="2" width="10" x="248" y="56" /><rect fill="#1e1e1e" height="10" rx="2" ry="2" width="10" x="248" y="68" /><rect fill="#1d4ed8" height="10" rx="2" ry="2" width="10" x="248" y="80" /><rect fill="#1d4ed8" height="10" rx="2" ry="2" width="10" x="248" y="92" /><rect fill="#1e1e1e" height="10" rx="2" ry="2" width="10" x="260" y="20" /><rect fill="#1d4ed8" height="10" rx="2" ry="2" width="10" x="260" y="32" /><rect fill="#1d4ed8" height="10" rx="2" ry="2" width="10" x="260" y="44" /><rect fill="#1e1e1e" height="10" rx="2" ry="2" width="10" x="260" y="56" /><rect fill="#1e1e1e" height="10" rx="2" ry="2" width="10" x="260" y="68" /><rect fill="#1d4ed8" height="10" rx="2" ry="2" width="10" x="260" y="80" /><rect fill="#1d4ed8" height="10" rx="2" ry="2" width="10" x="260" y="92" /><rect fill="#1d4ed8" height="10" rx="2" ry="2" width="10" x="272" y="20" /><rect fill="#1e1e1e" height="10" rx="2" ry="2" width="10" x="272" y="32" /><rect fill="#1d4ed8" height="10" rx="2" ry="2" width="10" x="272" y="44" /><rect fill="#1e1e1e" height="10" rx="2" ry="2" width="10" x="272" y="56" /><rect fill="#1e1e1e" height="10" rx="2" ry="2" width="10" x="272" y="68" /><rect fill="#1d4ed8" height="10" rx="2" ry="2" width="10" x="272" y="80" /><rect fill="#1d4ed8" height="10" rx="2" ry="2" width="10" x="272" y="92" /><rect fill="#1d4ed8" height="10" rx="2" ry="2" width="10" x="284" y="20" /><rect fill="#1d4ed8" height="10" rx="2" ry="2" width="10" x="284" y="32" /><rect fill="#1d4ed8" height="10" rx="2" ry="2" width="10" x="284" y="44" /><rect fill="#1e1e1e" height="10" rx="2" ry="2" width="10" x="284" y="56" /><rect fill="#1e1e1e" height="10" rx="2" ry="2" width="10" x="284" y="68" /><rect fill="#1d4ed8" height="10" rx="2" ry="2" width="10" x="284" y="80" /><rect fill="#1d4ed8" height="10" rx="2" ry="2" width="10" x="284" y="92" /><rect fill="#1e1e1e" height="10" rx="2" ry="2" width="10" x="296" y="20" /><rect fill="#1d4ed8" height="10" rx="2" ry="2" width="10" x="296" y="32" /><rect fill="#1d4ed8" height="10" rx="2" ry="2" width="10" x="296" y="44" /><rect fill="#1e1e1e" height="10" rx="2" ry="2" width="10" x="296" y="56" /><rect fill="#1e1e1e" height="10" rx="2" ry="2" width="10" x="296" y="68" /><rect fill="#1e1e1e" height="10" rx="2" ry="2" width="10" x="296" y="80" /><rect fill="#1e1e1e" height="10" rx="2" ry="2" width="10" x="296" y="92" /><rect fill="#1d4ed8" height="10" rx="2" ry="2" width="10" x="308" y="20" /><rect fill="#1d4ed8" height="10" rx="2" ry="2" width="10" x="308" y="32" /><rect fill="#1d4ed8" height="10" rx="2" ry="2" width="10" x="308" y="44" /><rect fill="#1e1e1e" height="10" rx="2" ry="2" width="10" x="308" y="56" /><rect fill="#1e1e1e" height="10" rx="2" ry="2" width="10" x="308" y="68" /><rect fill="#1d4ed8" height="10" rx="2" ry="2" width="10" x="308" y="80" /><rect fill="#1d4ed8" height="10" rx="2" ry="2" width="10" x="308" y="92" /><rect fill="#1d4ed8" height="10" rx="2" ry="2" width="10" x="320" y="20" /><rect fill="#1d4ed8" height="10" rx="2" ry="2" width="10" x="320" y="32" /><rect fill="#1e1e1e" height="10" rx="2" ry="2" width="10" x="320" y="44" /><rect fill="#1e1e1e" height="10" rx="2" ry="2" width="10" x="320" y="56" /><rect fill="#1d4ed8" height="10" rx="2" ry="2" width="10" x="320" y="68" /><rect fill="#1e1e1e" height="10" rx="2" ry="2" width="10" x="320" y="80" /><rect fill="#1e1e1e" height="10" rx="2" ry="2" width="10" x="320" y="92" /><rect fill="#1d4ed8" height="10" rx="2" ry="2" width="10" x="332" y="20" /><rect fill="#1e1e1e" height="10" rx="2" ry="2" width="10" x="332" y="32" /><rect fill="#1e1e1e" height="10" rx="2" ry="2" width="10" x="332" y="44" /><rect fill="#1e1e1e" height="10" rx="2" ry="2" width="10" x="332" y="56" /><rect fill="#1e1e1e" height="10" rx="2" ry="2" width="10" x="332" y="68" /><rect fill="#1e1e1e" height="10" rx="2" ry="2" width="10" x="332" y="80" /><rect fill="#1e1e1e" height="10" rx="2" ry="2" width="10" x="332" y="92" /><rect fill="#1d4ed8" height="10" rx="2" ry="2" width="10" x="344" y="20" /><rect fill="#1d4ed8" height="10" rx="2" ry="2" width="10" x="344" y="32" /><rect fill="#1e1e1e" height="10" rx="2" ry="2" width="10" x="344" y="44" /><rect fill="#1e1e1e" height="10" rx="2" ry="2" width="10" x="344" y="56" /><rect fill="#1e1e1e" height="10" rx="2" ry="2" width="10" x="344" y="68" /><rect fill="#1d4ed8" height="10" rx="2" ry="2" width="10" x="344" y="80" /><rect fill="#1d4ed8" height="10" rx="2" ry="2" width="10" x="344" y="92" /><rect fill="#1d4ed8" height="10" rx="2" ry="2" width="10" x="356" y="20" /><rect fill="#1e1e1e" height="10" rx="2" ry="2" width="10" x="356" y="32" /><rect fill="#1e1e1e" height="10" rx="2" ry="2" width="10" x="356" y="44" /><rect fill="#1e1e1e" height="10" rx="2" ry="2" width="10" x="356" y="56" /><rect fill="#1e1e1e" height="10" rx="2" ry="2" width="10" x="356" y="68" /><rect fill="#1d4ed8" height="10" rx="2" ry="2" width="10" x="356" y="80" /><rect fill="#1d4ed8" height="10" rx="2" ry="2" width="10" x="356" y="92" /><rect fill="#1d4ed8" height="10" rx="2" ry="2" width="10" x="368" y="20" /><rect fill="#1d4ed8" height="10" rx="2" ry="2" width="10" x="368" y="32" /><rect fill="#1d4ed8" height="10" rx="2" ry="2" width="10" x="368" y="44" /><rect fill="#1e1e1e" height="10" rx="2" ry="2" width="10" x="368" y="56" /><rect fill="#1e1e1e" height="10" rx="2" ry="2" width="10" x="368" y="68" /><rect fill="#1d4ed8" height="10" rx="2" ry="2" width="10" x="368" y="80" /><rect fill="#1e1e1e" height="10" rx="2" ry="2" width="10" x="368" y="92" /><rect fill="#1e1e1e" height="10" rx="2" ry="2" width="10" x="380" y="20" /><rect fill="#1d4ed8" height="10" rx="2" ry="2" width="10" x="380" y="32" /><rect fill="#1d4ed8" height="10" rx="2" ry="2" width="10" x="380" y="44" /><rect fill="#1e1e1e" height="10" rx="2" ry="2" width="10" x="380" y="56" /><rect fill="#1e1e1e" height="10" rx="2" ry="2" width="10" x="380" y="68" /><rect fill="#1d4ed8" height="10" rx="2" ry="2" width="10" x="380" y="80" /><rect fill="#1d4ed8" height="10" rx="2" ry="2" width="10" x="380" y="92" /><rect fill="#1e1e1e" height="10" rx="2" ry="2" width="10" x="392" y="20" /><rect fill="#1d4ed8" height="10" rx="2" ry="2" width="10" x="392" y="32" /><rect fill="#1d4ed8" height="10" rx="2" ry="2" width="10" x="392" y="44" /><rect fill="#1e1e1e" height="10" rx="2" ry="2" width="10" x="392" y="56" /><rect fill="#1e1e1e" height="10" rx="2" ry="2" width="10" x="392" y="68" /><rect fill="#1d4ed8" height="10" rx="2" ry="2" width="10" x="392" y="80" /><rect fill="#1e1e1e" height="10" rx="2" ry="2" width="10" x="392" y="92" /><rect fill="#1d4ed8" height="10" rx="2" ry="2" width="10" x="404" y="20" /><rect fill="#1d4ed8" height="10" rx="2" ry="2" width="10" x="404" y="32" /><rect fill="#1d4ed8" height="10" rx="2" ry="2" width="10" x="404" y="44" /><rect fill="#1e1e1e" height="10" rx="2" ry="2" width="10" x="404" y="56" /><rect fill="#1e1e1e" height="10" rx="2" ry="2" width="10" x="404" y="68" /><rect fill="#1e1e1e" height="10" rx="2" ry="2" width="10" x="404" y="80" /><rect fill="#1d4ed8" height="10" rx="2" ry="2" width="10" x="404" y="92" /><rect fill="#1e1e1e" height="10" rx="2" ry="2" width="10" x="416" y="20" /><rect fill="#1d4ed8" height="10" rx="2" ry="2" width="10" x="416" y="32" /><rect fill="#1d4ed8" height="10" rx="2" ry="2" width="10" x="416" y="44" /><rect fill="#1e1e1e" height="10" rx="2" ry="2" width="10" x="416" y="56" /><rect fill="#1e1e1e" height="10" rx="2" ry="2" width="10" x="416" y="68" /><rect fill="#1d4ed8" height="10" rx="2" ry="2" width="10" x="416" y="80" /><rect fill="#1e1e1e" height="10" rx="2" ry="2" width="10" x="416" y="92" /><rect fill="#1d4ed8" height="10" rx="2" ry="2" width="10" x="428" y="20" /><rect fill="#1d4ed8" height="10" rx="2" ry="2" width="10" x="428" y="32" /><rect fill="#1e1e1e" height="10" rx="2" ry="2" width="10" x="428" y="44" /><rect fill="#1e1e1e" height="10" rx="2" ry="2" width="10" x="428" y="56" /><rect fill="#1e1e1e" height="10" rx="2" ry="2" width="10" x="428" y="68" /><rect fill="#1e1e1e" height="10" rx="2" ry="2" width="10" x="428" y="80" /><rect fill="#1d4ed8" height="10" rx="2" ry="2" width="10" x="428" y="92" /><rect fill="#1d4ed8" height="10" rx="2" ry="2" width="10" x="440" y="20" /><rect fill="#1d4ed8" height="10" rx="2" ry="2" width="10" x="440" y="32" /><rect fill="#1d4ed8" height="10" rx="2" ry="2" width="10" x="440" y="44" /><rect fill="#1e1e1e" height="10" rx="2" ry="2" width="10" x="440" y="56" /><rect fill="#1e1e1e" height="10" rx="2" ry="2" width="10" x="440" y="68" /><rect fill="#1d4ed8" height="10" rx="2" ry="2" width="10" x="440" y="80" /><rect fill="#1d4ed8" height="10" rx="2" ry="2" width="10" x="440" y="92" /><rect fill="#1e1e1e" height="10" rx="2" ry="2" width="10" x="452" y="20" /><rect fill="#1d4ed8" height="10" rx="2" ry="2" width="10" x="452" y="32" /><rect fill="#1d4ed8" height="10" rx="2" ry="2" width="10" x="452" y="44" /><rect fill="#1e1e1e" height="10" rx="2" ry="2" width="10" x="452" y="56" /><rect fill="#1e1e1e" height="10" rx="2" ry="2" width="10" x="452" y="68" /><rect fill="#1e1e1e" height="10" rx="2" ry="2" width="10" x="452" y="80" /><rect fill="#1d4ed8" height="10" rx="2" ry="2" width="10" x="452" y="92" /><rect fill="#1d4ed8" height="10" rx="2" ry="2" width="10" x="464" y="20" /><rect fill="#1e1e1e" height="10" rx="2" ry="2" width="10" x="464" y="32" /><rect fill="#2563eb" height="10" rx="2" ry="2" width="10" x="464" y="44" /><rect fill="#1e1e1e" height="10" rx="2" ry="2" width="10" x="464" y="56" /><rect fill="#1e1e1e" height="10" rx="2" ry="2" width="10" x="464" y="68" /><rect fill="#1d4ed8" height="10" rx="2" ry="2" width="10" x="464" y="80" /><rect fill="#1d4ed8" height="10" rx="2" ry="2" width="10" x="464" y="92" /><rect fill="#1d4ed8" height="10" rx="2" ry="2" width="10" x="476" y="20" /><rect fill="#1e1e1e" height="10" rx="2" ry="2" width="10" x="476" y="32" /><rect fill="#1d4ed8" height="10" rx="2" ry="2" width="10" x="476" y="44" /><rect fill="#1e1e1e" height="10" rx="2" ry="2" width="10" x="476" y="56" /><rect fill="#1e1e1e" height="10" rx="2" ry="2" width="10" x="476" y="68" /><rect fill="#1d4ed8" height="10" rx="2" ry="2" width="10" x="476" y="80" /><rect fill="#1d4ed8" height="10" rx="2" ry="2" width="10" x="476" y="92" /><rect fill="#1d4ed8" height="10" rx="2" ry="2" width="10" x="488" y="20" /><rect fill="#1d4ed8" height="10" rx="2" ry="2" width="10" x="488" y="32" /><rect fill="#1d4ed8" height="10" rx="2" ry="2" width="10" x="488" y="44" /><rect fill="#1d4ed8" height="10" rx="2" ry="2" width="10" x="488" y="56" /><rect fill="#1e1e1e" height="10" rx="2" ry="2" width="10" x="488" y="68" /><rect fill="#1d4ed8" height="10" rx="2" ry="2" width="10" x="488" y="80" /><rect fill="#1e1e1e" height="10" rx="2" ry="2" width="10" x="488" y="92" /><rect fill="#1e1e1e" height="10" rx="2" ry="2" width="10" x="500" y="20" /><rect fill="#1e1e1e" height="10" rx="2" ry="2" width="10" x="500" y="32" /><rect fill="#1d4ed8" height="10" rx="2" ry="2" width="10" x="500" y="44" /><rect fill="#1e1e1e" height="10" rx="2" ry="2" width="10" x="500" y="56" /><rect fill="#1e1e1e" height="10" rx="2" ry="2" width="10" x="500" y="68" /><rect fill="#1e1e1e" height="10" rx="2" ry="2" width="10" x="500" y="80" /><rect fill="#1d4ed8" height="10" rx="2" ry="2" width="10" x="500" y="92" /><rect fill="#1d4ed8" height="10" rx="2" ry="2" width="10" x="512" y="20" /><rect fill="#1d4ed8" height="10" rx="2" ry="2" width="10" x="512" y="32" /><rect fill="#1e1e1e" height="10" rx="2" ry="2" width="10" x="512" y="44" /><rect fill="#1e1e1e" height="10" rx="2" ry="2" width="10" x="512" y="56" /><rect fill="#1e1e1e" height="10" rx="2" ry="2" width="10" x="512" y="68" /><rect fill="#1d4ed8" height="10" rx="2" ry="2" width="10" x="512" y="80" /><rect fill="#1d4ed8" height="10" rx="2" ry="2" width="10" x="512" y="92" /><rect fill="#1e1e1e" height="10" rx="2" ry="2" width="10" x="524" y="20" /><rect fill="#1e1e1e" height="10" rx="2" ry="2" width="10" x="524" y="32" /><rect fill="#1e1e1e" height="10" rx="2" ry="2" width="10" x="524" y="44" /><rect fill="#1e1e1e" height="10" rx="2" ry="2" width="10" x="524" y="56" /><rect fill="#1e1e1e" height="10" rx="2" ry="2" width="10" x="524" y="68" /><rect fill="#1d4ed8" height="10" rx="2" ry="2" width="10" x="524" y="80" /><rect fill="#1d4ed8" height="10" rx="2" ry="2" width="10" x="524" y="92" /><rect fill="#1d4ed8" height="10" rx="2" ry="2" width="10" x="536" y="20" /><rect fill="#1e1e1e" height="10" rx="2" ry="2" width="10" x="536" y="32" /><rect fill="#1d4ed8" height="10" rx="2" ry="2" width="10" x="536" y="44" /><rect fill="#1e1e1e" height="10" rx="2" ry="2" width="10" x="536" y="56" /><rect fill="#1d4ed8" height="10" rx="2" ry="2" width="10" x="536" y="68" /><rect fill="#1e1e1e" height="10" rx="2" ry="2" width="10" x="536" y="80" /><rect fill="#3b82f6" height="10" rx="2" ry="2" width="10" x="536" y="92" /><rect fill="#1d4ed8" height="10" rx="2" ry="2" width="10" x="548" y="20" /><rect fill="#1e1e1e" height="10" rx="2" ry="2" width="10" x="548" y="32" /><rect fill="#1d4ed8" height="10" rx="2" ry="2" width="10" x="548" y="44" /><rect fill="#1e1e1e" height="10" rx="2" ry="2" width="10" x="548" y="56" /><rect fill="#1e1e1e" height="10" rx="2" ry="2" width="10" x="548" y="68" /><rect fill="#1e1e1e" height="10" rx="2" ry="2" width="10" x="548" y="80" /><rect fill="#1d4ed8" height="10" rx="2" ry="2" width="10" x="548" y="92" /><rect fill="#1d4ed8" height="10" rx="2" ry="2" width="10" x="560" y="20" /><rect fill="#1d4ed8" height="10" rx="2" ry="2" width="10" x="560" y="32" /><rect fill="#1e1e1e" height="10" rx="2" ry="2" width="10" x="560" y="44" /><rect fill="#1e1e1e" height="10" rx="2" ry="2" width="10" x="560" y="56" /><rect fill="#1d4ed8" height="10" rx="2" ry="2" width="10" x="560" y="68" /><rect fill="#1e1e1e" height="10" rx="2" ry="2" width="10" x="560" y="80" /><rect fill="#1d4ed8" height="10" rx="2" ry="2" width="10" x="560" y="92" /><rect fill="#2563eb" height="10" rx="2" ry="2" width="10" x="572" y="20" /><rect fill="#1d4ed8" height="10" rx="2" ry="2" width="10" x="572" y="32" /><rect fill="#2563eb" height="10" rx="2" ry="2" width="10" x="572" y="44" /><rect fill="#1e1e1e" height="10" rx="2" ry="2" width="10" x="572" y="56" /><rect fill="#1e1e1e" height="10" rx="2" ry="2" width="10" x="572" y="68" /><rect fill="#1e1e1e" height="10" rx="2" ry="2" width="10" x="572" y="80" /><rect fill="#1e1e1e" height="10" rx="2" ry="2" width="10" x="572" y="92" /><rect fill="#1e1e1e" height="10" rx="2" ry="2" width="10" x="584" y="20" /><rect fill="#1d4ed8" height="10" rx="2" ry="2" width="10" x="584" y="32" /><rect fill="#1e1e1e" height="10" rx="2" ry="2" width="10" x="584" y="44" /><rect fill="#1e1e1e" height="10" rx="2" ry="2" width="10" x="584" y="56" /><rect fill="#1e1e1e" height="10" rx="2" ry="2" width="10" x="584" y="68" /><rect fill="#1d4ed8" height="10" rx="2" ry="2" width="10" x="584" y="80" /><rect fill="#1d4ed8" height="10" rx="2" ry="2" width="10" x="584" y="92" /><rect fill="#1d4ed8" height="10" rx="2" ry="2" width="10" x="596" y="20" /><rect fill="#1e1e1e" height="10" rx="2" ry="2" width="10" x="596" y="32" /><rect fill="#1e1e1e" height="10" rx="2" ry="2" width="10" x="596" y="44" /><rect fill="#1e1e1e" height="10" rx="2" ry="2" width="10" x="596" y="56" /><rect fill="#1e1e1e" height="10" rx="2" ry="2" width="10" x="596" y="68" /><rect fill="#1d4ed8" height="10" rx="2" ry="2" width="10" x="596" y="80" /><rect fill="#1e1e1e" height="10" rx="2" ry="2" width="10" x="596" y="92" /><rect fill="#1d4ed8" height="10" rx="2" ry="2" width="10" x="608" y="20" /><rect fill="#1e1e1e" height="10" rx="2" ry="2" width="10" x="608" y="32" /><rect fill="#1d4ed8" height="10" rx="2" ry="2" width="10" x="608" y="44" /><rect fill="#1e1e1e" height="10" rx="2" ry="2" width="10" x="608" y="56" /><rect fill="#1e1e1e" height="10" rx="2" ry="2" width="10" x="608" y="68" /><rect fill="#1e1e1e" height="10" rx="2" ry="2" width="10" x="608" y="80" /><rect fill="#1d4ed8" height="10" rx="2" ry="2" width="10" x="608" y="92" /><rect fill="#1d4ed8" height="10" rx="2" ry="2" width="10" x="620" y="20" /><rect fill="#1d4ed8" height="10" rx="2" ry="2" width="10" x="620" y="32" /><rect fill="#1d4ed8" height="10" rx="2" ry="2" width="10" x="620" y="44" /><rect fill="#1e1e1e" height="10" rx="2" ry="2" width="10" x="620" y="56" /><rect fill="#1e1e1e" height="10" rx="2" ry="2" width="10" x="620" y="68" /><rect fill="#1d4ed8" height="10" rx="2" ry="2" width="10" x="620" y="80" /><rect fill="#1d4ed8" height="10" rx="2" ry="2" width="10" x="620" y="92" /><rect fill="#2563eb" height="10" rx="2" ry="2" width="10" x="632" y="20" /><rect fill="#1e1e1e" height="10" rx="2" ry="2" width="10" x="632" y="32" /><rect fill="#1e1e1e" height="10" rx="2" ry="2" width="10" x="632" y="44" /><rect fill="#1e1e1e" height="10" rx="2" ry="2" width="10" x="632" y="56" /><rect fill="#1e1e1e" height="10" rx="2" ry="2" width="10" x="632" y="68" /><rect fill="#1e1e1e" height="10" rx="2" ry="2" width="10" x="632" y="80" /><rect fill="#1e1e1e" height="10" rx="2" ry="2" width="10" x="632" y="92" /><rect fill="#1d4ed8" height="10" rx="2" ry="2" width="10" x="644" y="20" /><rect fill="#1e1e1e" height="10" rx="2" ry="2" width="10" x="644" y="32" /><rect fill="#1e1e1e" height="10" rx="2" ry="2" width="10" x="644" y="44" /><rect fill="#1e1e1e" height="10" rx="2" ry="2" width="10" x="644" y="56" /><rect fill="#1e1e1e" height="10" rx="2" ry="2" width="10" x="644" y="68" /><rect fill="#1e1e1e" height="10" rx="2" ry="2" width="10" x="644" y="80" /><rect fill="#1e1e1e" height="10" rx="2" ry="2" width="10" x="644" y="92" /></svg>